<?xml version="1.0" encoding="UTF-8" standalone="no"?>
<!DOCTYPE svg PUBLIC "-//W3C//DTD SVG 1.1//EN"
 "http://www.w3.org/Graphics/SVG/1.1/DTD/svg11.dtd">
<!-- Generated by graphviz version 14.0.5 (0)
 -->
<!-- Title: AST Pages: 1 -->
<svg width="368pt" height="666pt"
 viewBox="0.00 0.00 368.00 666.00" xmlns="http://www.w3.org/2000/svg" xmlns:xlink="http://www.w3.org/1999/xlink">
<g id="graph0" class="graph" transform="scale(1 1) rotate(0) translate(4 661.75)">
<title>AST</title>
<polygon fill="white" stroke="none" points="-4,4 -4,-661.75 364.14,-661.75 364.14,4 -4,4"/>
<!-- Node0 -->
<g id="node1" class="node">
<title>Node0</title>
<path fill="none" stroke="black" d="M168.5,-657.75C168.5,-657.75 133,-657.75 133,-657.75 127,-657.75 121,-651.75 121,-645.75 121,-645.75 121,-633.75 121,-633.75 121,-627.75 127,-621.75 133,-621.75 133,-621.75 168.5,-621.75 168.5,-621.75 174.5,-621.75 180.5,-627.75 180.5,-633.75 180.5,-633.75 180.5,-645.75 180.5,-645.75 180.5,-651.75 174.5,-657.75 168.5,-657.75"/>
<text xml:space="preserve" text-anchor="middle" x="150.75" y="-636.2" font-family="Fira Code" font-size="14.00">Node0</text>
</g>
<!-- Node1 -->
<g id="node2" class="node">
<title>Node1</title>
<path fill="none" stroke="black" d="M168.5,-551.25C168.5,-551.25 133,-551.25 133,-551.25 127,-551.25 121,-545.25 121,-539.25 121,-539.25 121,-527.25 121,-527.25 121,-521.25 127,-515.25 133,-515.25 133,-515.25 168.5,-515.25 168.5,-515.25 174.5,-515.25 180.5,-521.25 180.5,-527.25 180.5,-527.25 180.5,-539.25 180.5,-539.25 180.5,-545.25 174.5,-551.25 168.5,-551.25"/>
<text xml:space="preserve" text-anchor="middle" x="150.75" y="-529.7" font-family="Fira Code" font-size="14.00">Node1</text>
</g>
<!-- Node0&#45;&gt;Node1 -->
<g id="edge1" class="edge">
<title>Node0&#45;&gt;Node1</title>
<path fill="none" stroke="blue" d="M150.75,-621.49C150.75,-605.61 150.75,-581.74 150.75,-562.99"/>
<polygon fill="blue" stroke="blue" points="154.25,-563.05 150.75,-553.05 147.25,-563.05 154.25,-563.05"/>
<text xml:space="preserve" text-anchor="middle" x="174.38" y="-590.45" font-family="Times,serif" font-size="14.00">Binary</text>
<text xml:space="preserve" text-anchor="middle" x="174.38" y="-573.2" font-family="Times,serif" font-size="14.00">!=</text>
</g>
<!-- Node2 -->
<g id="node3" class="node">
<title>Node2</title>
<path fill="none" stroke="black" d="M129.5,-462C129.5,-462 94,-462 94,-462 88,-462 82,-456 82,-450 82,-450 82,-438 82,-438 82,-432 88,-426 94,-426 94,-426 129.5,-426 129.5,-426 135.5,-426 141.5,-432 141.5,-438 141.5,-438 141.5,-450 141.5,-450 141.5,-456 135.5,-462 129.5,-462"/>
<text xml:space="preserve" text-anchor="middle" x="111.75" y="-440.45" font-family="Fira Code" font-size="14.00">Node2</text>
</g>
<!-- Node1&#45;&gt;Node2 -->
<g id="edge2" class="edge">
<title>Node1&#45;&gt;Node2</title>
<path fill="none" stroke="blue" d="M130.95,-514.96C126.13,-509.75 121.5,-503.69 118.5,-497.25 115.11,-489.98 113.25,-481.57 112.27,-473.64"/>
<polygon fill="blue" stroke="blue" points="115.76,-473.4 111.49,-463.71 108.78,-473.95 115.76,-473.4"/>
<text xml:space="preserve" text-anchor="middle" x="142.12" y="-483.95" font-family="Times,serif" font-size="14.00">Binary</text>
</g>
<!-- Node6 -->
<g id="node7" class="node">
<title>Node6</title>
<path fill="none" stroke="black" d="M207.5,-462C207.5,-462 172,-462 172,-462 166,-462 160,-456 160,-450 160,-450 160,-438 160,-438 160,-432 166,-426 172,-426 172,-426 207.5,-426 207.5,-426 213.5,-426 219.5,-432 219.5,-438 219.5,-438 219.5,-450 219.5,-450 219.5,-456 213.5,-462 207.5,-462"/>
<text xml:space="preserve" text-anchor="middle" x="189.75" y="-440.45" font-family="Fira Code" font-size="14.00">Node6</text>
</g>
<!-- Node1&#45;&gt;Node6 -->
<g id="edge6" class="edge">
<title>Node1&#45;&gt;Node6</title>
<path fill="none" stroke="blue" d="M158.46,-515.01C163.85,-502.94 171.17,-486.56 177.38,-472.67"/>
<polygon fill="blue" stroke="blue" points="180.56,-474.14 181.44,-463.58 174.17,-471.28 180.56,-474.14"/>
<text xml:space="preserve" text-anchor="middle" x="197.37" y="-483.95" font-family="Times,serif" font-size="14.00">Binary</text>
</g>
<!-- Node3 -->
<g id="node4" class="node">
<title>Node3</title>
<path fill="none" stroke="black" d="M127.5,-355.5C127.5,-355.5 92,-355.5 92,-355.5 86,-355.5 80,-349.5 80,-343.5 80,-343.5 80,-331.5 80,-331.5 80,-325.5 86,-319.5 92,-319.5 92,-319.5 127.5,-319.5 127.5,-319.5 133.5,-319.5 139.5,-325.5 139.5,-331.5 139.5,-331.5 139.5,-343.5 139.5,-343.5 139.5,-349.5 133.5,-355.5 127.5,-355.5"/>
<text xml:space="preserve" text-anchor="middle" x="109.75" y="-333.95" font-family="Fira Code" font-size="14.00">Node3</text>
</g>
<!-- Node2&#45;&gt;Node3 -->
<g id="edge3" class="edge">
<title>Node2&#45;&gt;Node3</title>
<path fill="none" stroke="blue" d="M111.42,-425.74C111.12,-409.86 110.66,-385.99 110.3,-367.24"/>
<polygon fill="blue" stroke="blue" points="113.8,-367.23 110.11,-357.29 106.8,-367.36 113.8,-367.23"/>
<text xml:space="preserve" text-anchor="middle" x="134.67" y="-394.7" font-family="Times,serif" font-size="14.00">Binary</text>
<text xml:space="preserve" text-anchor="middle" x="134.67" y="-377.45" font-family="Times,serif" font-size="14.00">+</text>
</g>
<!-- Node4 -->
<g id="node5" class="node">
<title>Node4</title>
<path fill="none" stroke="black" d="M47.5,-249C47.5,-249 12,-249 12,-249 6,-249 0,-243 0,-237 0,-237 0,-225 0,-225 0,-219 6,-213 12,-213 12,-213 47.5,-213 47.5,-213 53.5,-213 59.5,-219 59.5,-225 59.5,-225 59.5,-237 59.5,-237 59.5,-243 53.5,-249 47.5,-249"/>
<text xml:space="preserve" text-anchor="middle" x="29.75" y="-227.45" font-family="Fira Code" font-size="14.00">Node4</text>
</g>
<!-- Node3&#45;&gt;Node4 -->
<g id="edge4" class="edge">
<title>Node3&#45;&gt;Node4</title>
<path fill="none" stroke="blue" d="M79.62,-325.08C68.49,-319.5 56.67,-311.74 48.75,-301.5 39.69,-289.79 34.95,-274.06 32.47,-260.52"/>
<polygon fill="blue" stroke="blue" points="35.96,-260.23 31.04,-250.84 29.04,-261.25 35.96,-260.23"/>
<text xml:space="preserve" text-anchor="middle" x="77.25" y="-288.2" font-family="Times,serif" font-size="14.00">Integer:</text>
<text xml:space="preserve" text-anchor="middle" x="77.25" y="-270.95" font-family="Times,serif" font-size="14.00"> 34</text>
</g>
<!-- Node5 -->
<g id="node6" class="node">
<title>Node5</title>
<path fill="none" stroke="black" d="M127.5,-249C127.5,-249 92,-249 92,-249 86,-249 80,-243 80,-237 80,-237 80,-225 80,-225 80,-219 86,-213 92,-213 92,-213 127.5,-213 127.5,-213 133.5,-213 139.5,-219 139.5,-225 139.5,-225 139.5,-237 139.5,-237 139.5,-243 133.5,-249 127.5,-249"/>
<text xml:space="preserve" text-anchor="middle" x="109.75" y="-227.45" font-family="Fira Code" font-size="14.00">Node5</text>
</g>
<!-- Node3&#45;&gt;Node5 -->
<g id="edge5" class="edge">
<title>Node3&#45;&gt;Node5</title>
<path fill="none" stroke="blue" d="M109.75,-319.24C109.75,-303.36 109.75,-279.49 109.75,-260.74"/>
<polygon fill="blue" stroke="blue" points="113.25,-260.8 109.75,-250.8 106.25,-260.8 113.25,-260.8"/>
<text xml:space="preserve" text-anchor="middle" x="138.25" y="-288.2" font-family="Times,serif" font-size="14.00">Integer:</text>
<text xml:space="preserve" text-anchor="middle" x="138.25" y="-270.95" font-family="Times,serif" font-size="14.00"> 35</text>
</g>
<!-- Node7 -->
<g id="node8" class="node">
<title>Node7</title>
<path fill="none" stroke="black" d="M207.5,-355.5C207.5,-355.5 172,-355.5 172,-355.5 166,-355.5 160,-349.5 160,-343.5 160,-343.5 160,-331.5 160,-331.5 160,-325.5 166,-319.5 172,-319.5 172,-319.5 207.5,-319.5 207.5,-319.5 213.5,-319.5 219.5,-325.5 219.5,-331.5 219.5,-331.5 219.5,-343.5 219.5,-343.5 219.5,-349.5 213.5,-355.5 207.5,-355.5"/>
<text xml:space="preserve" text-anchor="middle" x="189.75" y="-333.95" font-family="Fira Code" font-size="14.00">Node7</text>
</g>
<!-- Node6&#45;&gt;Node7 -->
<g id="edge7" class="edge">
<title>Node6&#45;&gt;Node7</title>
<path fill="none" stroke="blue" d="M189.75,-425.74C189.75,-409.86 189.75,-385.99 189.75,-367.24"/>
<polygon fill="blue" stroke="blue" points="193.25,-367.3 189.75,-357.3 186.25,-367.3 193.25,-367.3"/>
<text xml:space="preserve" text-anchor="middle" x="213.38" y="-394.7" font-family="Times,serif" font-size="14.00">Binary</text>
<text xml:space="preserve" text-anchor="middle" x="213.38" y="-377.45" font-family="Times,serif" font-size="14.00">*</text>
</g>
<!-- Node8 -->
<g id="node9" class="node">
<title>Node8</title>
<path fill="none" stroke="black" d="M207.5,-249C207.5,-249 172,-249 172,-249 166,-249 160,-243 160,-237 160,-237 160,-225 160,-225 160,-219 166,-213 172,-213 172,-213 207.5,-213 207.5,-213 213.5,-213 219.5,-219 219.5,-225 219.5,-225 219.5,-237 219.5,-237 219.5,-243 213.5,-249 207.5,-249"/>
<text xml:space="preserve" text-anchor="middle" x="189.75" y="-227.45" font-family="Fira Code" font-size="14.00">Node8</text>
</g>
<!-- Node7&#45;&gt;Node8 -->
<g id="edge8" class="edge">
<title>Node7&#45;&gt;Node8</title>
<path fill="none" stroke="blue" d="M189.75,-319.24C189.75,-303.36 189.75,-279.49 189.75,-260.74"/>
<polygon fill="blue" stroke="blue" points="193.25,-260.8 189.75,-250.8 186.25,-260.8 193.25,-260.8"/>
<text xml:space="preserve" text-anchor="middle" x="218.25" y="-288.2" font-family="Times,serif" font-size="14.00">Integer:</text>
<text xml:space="preserve" text-anchor="middle" x="218.25" y="-270.95" font-family="Times,serif" font-size="14.00"> 420</text>
</g>
<!-- Node9 -->
<g id="node10" class="node">
<title>Node9</title>
<path fill="none" stroke="black" d="M287.5,-249C287.5,-249 252,-249 252,-249 246,-249 240,-243 240,-237 240,-237 240,-225 240,-225 240,-219 246,-213 252,-213 252,-213 287.5,-213 287.5,-213 293.5,-213 299.5,-219 299.5,-225 299.5,-225 299.5,-237 299.5,-237 299.5,-243 293.5,-249 287.5,-249"/>
<text xml:space="preserve" text-anchor="middle" x="269.75" y="-227.45" font-family="Fira Code" font-size="14.00">Node9</text>
</g>
<!-- Node7&#45;&gt;Node9 -->
<g id="edge9" class="edge">
<title>Node7&#45;&gt;Node9</title>
<path fill="none" stroke="blue" d="M219.71,-323.81C229.82,-318.25 240.4,-310.83 247.75,-301.5 257.02,-289.74 262.42,-274 265.55,-260.47"/>
<polygon fill="blue" stroke="blue" points="268.95,-261.29 267.46,-250.8 262.09,-259.93 268.95,-261.29"/>
<text xml:space="preserve" text-anchor="middle" x="287.28" y="-279.57" font-family="Times,serif" font-size="14.00">Binary</text>
</g>
<!-- Node10 -->
<g id="node11" class="node">
<title>Node10</title>
<path fill="none" stroke="black" d="M291.62,-142.5C291.62,-142.5 247.88,-142.5 247.88,-142.5 241.88,-142.5 235.88,-136.5 235.88,-130.5 235.88,-130.5 235.88,-118.5 235.88,-118.5 235.88,-112.5 241.88,-106.5 247.88,-106.5 247.88,-106.5 291.62,-106.5 291.62,-106.5 297.62,-106.5 303.62,-112.5 303.62,-118.5 303.62,-118.5 303.62,-130.5 303.62,-130.5 303.62,-136.5 297.62,-142.5 291.62,-142.5"/>
<text xml:space="preserve" text-anchor="middle" x="269.75" y="-120.95" font-family="Fira Code" font-size="14.00">Node10</text>
</g>
<!-- Node9&#45;&gt;Node10 -->
<g id="edge10" class="edge">
<title>Node9&#45;&gt;Node10</title>
<path fill="none" stroke="blue" d="M269.75,-212.74C269.75,-196.86 269.75,-172.99 269.75,-154.24"/>
<polygon fill="blue" stroke="blue" points="273.25,-154.3 269.75,-144.3 266.25,-154.3 273.25,-154.3"/>
<text xml:space="preserve" text-anchor="middle" x="293.38" y="-181.7" font-family="Times,serif" font-size="14.00">Binary</text>
<text xml:space="preserve" text-anchor="middle" x="293.38" y="-164.45" font-family="Times,serif" font-size="14.00">/</text>
</g>
<!-- Node11 -->
<g id="node12" class="node">
<title>Node11</title>
<path fill="none" stroke="black" d="M248.62,-36C248.62,-36 204.88,-36 204.88,-36 198.88,-36 192.88,-30 192.88,-24 192.88,-24 192.88,-12 192.88,-12 192.88,-6 198.88,0 204.88,0 204.88,0 248.62,0 248.62,0 254.62,0 260.62,-6 260.62,-12 260.62,-12 260.62,-24 260.62,-24 260.62,-30 254.62,-36 248.62,-36"/>
<text xml:space="preserve" text-anchor="middle" x="226.75" y="-14.45" font-family="Fira Code" font-size="14.00">Node11</text>
</g>
<!-- Node10&#45;&gt;Node11 -->
<g id="edge11" class="edge">
<title>Node10&#45;&gt;Node11</title>
<path fill="none" stroke="blue" d="M247.15,-106.26C241.91,-101.13 236.93,-95.09 233.75,-88.5 227.69,-75.96 225.66,-60.68 225.26,-47.65"/>
<polygon fill="blue" stroke="blue" points="228.76,-47.98 225.28,-37.97 221.76,-47.96 228.76,-47.98"/>
<text xml:space="preserve" text-anchor="middle" x="262.25" y="-75.2" font-family="Times,serif" font-size="14.00">Integer:</text>
<text xml:space="preserve" text-anchor="middle" x="262.25" y="-57.95" font-family="Times,serif" font-size="14.00"> 300</text>
</g>
<!-- Node12 -->
<g id="node13" class="node">
<title>Node12</title>
<path fill="none" stroke="black" d="M334.62,-36C334.62,-36 290.88,-36 290.88,-36 284.88,-36 278.88,-30 278.88,-24 278.88,-24 278.88,-12 278.88,-12 278.88,-6 284.88,0 290.88,0 290.88,0 334.62,0 334.62,0 340.62,0 346.62,-6 346.62,-12 346.62,-12 346.62,-24 346.62,-24 346.62,-30 340.62,-36 334.62,-36"/>
<text xml:space="preserve" text-anchor="middle" x="312.75" y="-14.45" font-family="Fira Code" font-size="14.00">Node12</text>
</g>
<!-- Node10&#45;&gt;Node12 -->
<g id="edge12" class="edge">
<title>Node10&#45;&gt;Node12</title>
<path fill="none" stroke="blue" d="M281.26,-106.13C284.61,-100.64 288.07,-94.44 290.75,-88.5 296.68,-75.34 301.7,-60.11 305.43,-47.26"/>
<polygon fill="blue" stroke="blue" points="308.78,-48.3 308.09,-37.72 302.03,-46.42 308.78,-48.3"/>
<text xml:space="preserve" text-anchor="middle" x="331.64" y="-75.2" font-family="Times,serif" font-size="14.00">Integer:</text>
<text xml:space="preserve" text-anchor="middle" x="331.64" y="-57.95" font-family="Times,serif" font-size="14.00"> 400</text>
</g>
</g>
</svg>
